<?xml version="1.0" encoding="utf-8"?>
<!-- Generator: Adobe Illustrator 22.0.1, SVG Export Plug-In . SVG Version: 6.00 Build 0)  -->
<svg version="1.1" id="Layer_1_1_" xmlns="http://www.w3.org/2000/svg" xmlns:xlink="http://www.w3.org/1999/xlink" x="0px" y="0px"
	 viewBox="0 0 512 512" style="enable-background:new 0 0 512 512;" xml:space="preserve">
<style type="text/css">
	.st0{fill:url(#SVGID_1_);}
</style>
<linearGradient id="SVGID_1_" gradientUnits="userSpaceOnUse" x1="20.125" y1="603.625" x2="-41.875" y2="603.625" gradientTransform="matrix(8 0 0 -8 343 5085)">
	<stop  offset="0" style="stop-color:#9F2FFF"/>
	<stop  offset="1" style="stop-color:#0BB1D3"/>
</linearGradient>
<path class="st0" d="M52.5,341.2C44.6,353.6,40,368.3,40,384c0,44.1,35.9,80,80,80c2.4,0,4.9-0.1,7.4-0.4
	c12,24.4,37.2,40.4,64.6,40.4c39.7,0,72-32.3,72-72v-88h56v-16h-56v-32h128v-16H264v-48h16v-16h-16v-32h96v-16h-96V80
	c0-39.7-32.3-72-72-72c-28.9,0-53.7,17.1-65.2,41.7l-0.4,0.1C85.6,58,56,94.3,56,136c0,10.1,1.7,19.9,5.1,29.4
	C28.6,183.7,8,218.5,8,256C8,290,24.9,321.9,52.5,341.2z M74.7,176.4l7.2-3.4l-3.3-7.2c-4.3-9.5-6.5-19.5-6.5-29.8
	c0-31.1,20.2-58.5,49.1-68.2c-0.7,4-1.1,8-1.1,12.2c0,12.7,3.3,25.1,9.6,36l13.8-8c-4.9-8.5-7.5-18.2-7.5-28c0-30.9,25.1-56,56-56
	s56,25.1,56,56v352c0,30.9-25.1,56-56,56c-23,0-44-14.5-52.2-36l-2.4-6.1l-6.5,1.1c-3.9,0.7-7.5,1-10.9,1c-35.3,0-64-28.7-64-64
	s28.7-64,64-64v-16c-22.6,0-43,9.4-57.5,24.5C38.7,312.2,24,285.1,24,256C24,222.1,43.9,190.9,74.7,176.4z M216,432h16
	c0,22.1-17.9,40-40,40v-16C205.2,456,216,445.2,216,432z M120,416v16c-26.5,0-48-21.5-48-48h16C88,401.6,102.4,416,120,416z
	 M424,424c0,13.2,10.8,24,24,24s24-10.8,24-24c0-10.4-6.7-19.2-16-22.5V368c0-22.1-17.9-40-40-40h-80v16h80c13.2,0,24,10.8,24,24
	v33.5C430.7,404.8,424,413.6,424,424z M448,432c-4.4,0-8-3.6-8-8s3.6-8,8-8s8,3.6,8,8S452.4,432,448,432z M504,288
	c0-13.2-10.8-24-24-24c-10.4,0-19.2,6.7-22.5,16H408v16h49.5c3.3,9.3,12.1,16,22.5,16C493.2,312,504,301.2,504,288z M472,288
	c0-4.4,3.6-8,8-8s8,3.6,8,8s-3.6,8-8,8S472,292.4,472,288z M457.5,216H296v16h161.5c3.3,9.3,12.1,16,22.5,16c13.2,0,24-10.8,24-24
	s-10.8-24-24-24C469.6,200,460.8,206.7,457.5,216z M480,216c4.4,0,8,3.6,8,8s-3.6,8-8,8s-8-3.6-8-8S475.6,216,480,216z M456,144
	v-33.5c9.3-3.3,16-12.1,16-22.5c0-13.2-10.8-24-24-24s-24,10.8-24,24c0,10.4,6.7,19.2,16,22.5V144c0,13.2-10.8,24-24,24h-40v16h40
	C438.1,184,456,166.1,456,144z M448,80c4.4,0,8,3.6,8,8s-3.6,8-8,8s-8-3.6-8-8S443.6,80,448,80z M95,271.6
	c-15.6-15.6-15.6-41,0-56.6c15.6-15.6,41-15.6,56.6,0l-11.3,11.3c-9.4-9.4-24.6-9.4-33.9,0c-9.4,9.4-9.4,24.6,0,33.9L95,271.6z
	 M168,80h-16c0-22.1,17.9-40,40-40s40,17.9,40,40h-16c0-13.2-10.8-24-24-24S168,66.8,168,80z M184,232v-16c13.2,0,24-10.8,24-24
	s-10.8-24-24-24v-16c22.1,0,40,17.9,40,40S206.1,232,184,232z M184,320v16c-13.2,0-24,10.8-24,24s10.8,24,24,24v16
	c-22.1,0-40-17.9-40-40S161.9,320,184,320z"/>
</svg>
